<svg xmlns="http://www.w3.org/2000/svg" viewBox="0 0 1280 509" opacity=".3"><path fill="none" d="M49.7 278.5c-1.3 0-2.4.8-2.9 1.9-.5 1.2-.2 2.5.7 3.4.9.9 2.2 1.2 3.4.7 1.2-.5 1.9-1.6 1.9-2.9 0-.8-.3-1.6-.9-2.2-.6-.6-1.3-.9-2.2-.9zm76.5-155.6c1.7 0 3.1-1.4 3.1-3.1 0-.8-.3-1.6-.9-2.2s-1.4-.9-2.2-.9c-1.7 0-3.1 1.4-3.1 3.1 0 1.7 1.4 3.1 3.1 3.1zM1219 51c1.7 0 3.1-1.4 3.1-3.1 0-.8-.3-1.6-.9-2.2s-1.4-.9-2.2-.9c-1.7 0-3.1 1.4-3.1 3.1 0 1.7 1.3 3.1 3.1 3.1zm-127.8 425.1c-1.7 0-3.1 1.4-3.1 3.1s1.4 3.1 3.1 3.1c1.7 0 3.1-1.4 3.1-3.1 0-.8-.3-1.6-.9-2.2s-1.4-.9-2.2-.9zm117.6-179.7c-1.7 0-3.1 1.4-3.1 3.1 0 1.7 1.4 3.1 3.1 3.1 1.7 0 3.1-1.4 3.1-3.1 0-.8-.3-1.6-.9-2.2-.5-.6-1.3-.9-2.2-.9zM167.9 440.3c-1.7 0-3.1 1.4-3.1 3.1 0 1.7 1.4 3.1 3.1 3.1s3.1-1.4 3.1-3.1c0-.8-.3-1.6-.9-2.2s-1.4-.9-2.2-.9z"/><path fill="#24292E" d="M147.5 13.4h49.6c.7 0 1.3-.6 1.3-1.3 0-.7-.6-1.3-1.3-1.3h-49.6c-.7 0-1.3.6-1.3 1.3 0 .7.6 1.3 1.3 1.3zM48.1 31.3H87c.7 0 1.3-.6 1.3-1.3s-.6-1.3-1.3-1.3H48.1c-.7 0-1.3.6-1.3 1.3s.6 1.3 1.3 1.3zm76.9 0h11.2c.7 0 1.3-.6 1.3-1.3s-.6-1.3-1.3-1.3H125c-.7 0-1.3.6-1.3 1.3s.6 1.3 1.3 1.3zM79.7 66c0 .7.6 1.3 1.3 1.3h16.3c.7 0 1.3-.6 1.3-1.3s-.6-1.3-1.3-1.3H81.1c-.8 0-1.4.6-1.4 1.3z"/><path fill="#24292E" d="M31.5 85.2h31.3c-5.1 3.2-8.5 8.8-8.5 15.2v56.7c0 8.4-6.8 15.2-15.2 15.2H20.9c-.7 0-1.3.6-1.3 1.3s.6 1.3 1.3 1.3H39c9.9 0 17.8-8 17.9-17.9v-56.7c0-8.3 6.6-15 14.9-15.2h22.9c9.9 0 17.9-8 17.9-17.9V0H110v67.3c0 8.4-6.8 15.2-15.2 15.2H31.4c-.7 0-1.3.6-1.3 1.3s.6 1.4 1.4 1.4z"/><path fill="#24292E" d="M79 47.9c0 .7.6 1.3 1.3 1.3h13.4c.7 0 1.3-.6 1.3-1.3s-.6-1.3-1.3-1.3H80.3c-.7 0-1.3.6-1.3 1.3zM6.2 139.2h34c.7 0 1.3-.6 1.3-1.3s-.6-1.3-1.3-1.3h-34c-.7 0-1.3.6-1.3 1.3 0 .7.6 1.3 1.3 1.3zm83.4 0c.7 0 1.3-.6 1.3-1.3 0-.7-.6-1.3-1.3-1.3H70.2c-.7 0-1.3.6-1.3 1.3 0 .7.6 1.3 1.3 1.3h19.4zm67.6-2.6c-.7 0-1.3.6-1.3 1.3 0 .7.6 1.3 1.3 1.3H172c.7 0 1.3-.6 1.3-1.3 0-.7-.6-1.3-1.3-1.3h-14.8zm65.1 1.3c0-.7-.6-1.3-1.3-1.3h-34.2c-.7 0-1.3.6-1.3 1.3 0 .7.6 1.3 1.3 1.3H221c.7 0 1.3-.6 1.3-1.3zm-98.1 17.9c0 .7.6 1.3 1.3 1.3H146c.7 0 1.3-.6 1.3-1.3s-.6-1.3-1.3-1.3h-20.6c-.6 0-1.2.6-1.2 1.3zm-26.6-53.9c0 .7.6 1.3 1.3 1.3h13.9c.7 0 1.3-.6 1.3-1.3s-.6-1.3-1.3-1.3H98.9c-.7-.1-1.3.5-1.3 1.3zm72.5.6c.2-.4.2-.9 0-1.3s-.7-.7-1.1-.7h-40c-.7 0-1.3.6-1.3 1.3s.6 1.3 1.3 1.3h20.2c8.7 0 15.8 6.7 16.4 15.3h-18c-.7 0-1.3.6-1.3 1.3s.6 1.3 1.3 1.3h37.8c.7 0 1.3-.6 1.3-1.3s-.6-1.3-1.3-1.3h-17.1c-.4-6.5-4.1-12.1-9.4-15.3H169c.4.1.8-.2 1.1-.6zm10.4-.6c0 .7.6 1.3 1.3 1.3h20.7c.5 0 .9-.3 1.1-.7.2-.4.2-.9 0-1.3s-.7-.7-1.1-.7h-20.7c-.7 0-1.3.6-1.3 1.4zM68.9 119.8c0 .7.6 1.3 1.3 1.3h50.4c.6 2.5 2.9 4.4 5.6 4.4 3.2 0 5.7-2.6 5.7-5.7 0-3.2-2.6-5.7-5.7-5.7-2.7 0-5 1.9-5.6 4.4H70.2c-.7-.1-1.3.5-1.3 1.3zm57.3-3.1c.8 0 1.6.3 2.2.9s.9 1.4.9 2.2c0 1.7-1.4 3.1-3.1 3.1-1.7 0-3.1-1.4-3.1-3.1 0-1.7 1.4-3.1 3.1-3.1zm122.2 1.7h-49.7c-.7 0-1.3.6-1.3 1.3s.6 1.3 1.3 1.3h49.7c.7 0 1.3-.6 1.3-1.3s-.6-1.3-1.3-1.3zm-235.5 2.7h18.8c.7 0 1.3-.6 1.3-1.3s-.6-1.3-1.3-1.3H12.9c-.7 0-1.3.6-1.3 1.3s.5 1.3 1.3 1.3zm19.6 70.7c0 .7.6 1.3 1.3 1.3h31.9c.7 0 1.3-.6 1.3-1.3s-.6-1.3-1.3-1.3H33.8c-.7 0-1.3.6-1.3 1.3zm161.7 0c0-.7-.6-1.3-1.3-1.3H162c-.7 0-1.3.6-1.3 1.3s.6 1.3 1.3 1.3h11.6c-.7 8.5-7.8 15.3-16.5 15.3H142c-9.8 0-17.8 8-17.9 17.8l-.2 38.9c0 4-1.6 7.9-4.4 10.7-2.8 2.8-6.7 4.4-10.7 4.4H55.3c-.6-2.5-2.9-4.4-5.6-4.4-3.2 0-5.7 2.6-5.7 5.7s2.6 5.7 5.7 5.7c2.7 0 5-1.9 5.6-4.4h53.5c9.8 0 17.8-7.9 17.8-17.7l.2-38.9c0-8.4 6.8-15.2 15.2-15.2h14.9c10.2 0 18.5-7.9 19.2-17.9h16.7c.8 0 1.4-.6 1.4-1.3zM50.9 284.4c-1.2.5-2.5.2-3.4-.7-.9-.9-1.1-2.2-.7-3.4.5-1.2 1.6-1.9 2.9-1.9.8 0 1.6.3 2.2.9.6.6.9 1.4.9 2.2 0 1.3-.7 2.5-1.9 2.9zm10.2-110.7c0 .7.6 1.3 1.3 1.3h11L89 190.5h-9.4c-.7 0-1.3.6-1.3 1.3s.6 1.3 1.3 1.3h27.1c.7 0 1.3-.6 1.3-1.3s-.6-1.3-1.3-1.3h-14L77.2 175h6.2c.7 0 1.3-.6 1.3-1.3s-.6-1.3-1.3-1.3h-21c-.7 0-1.3.6-1.3 1.3zm32.6 1.3h9.7c.7 0 1.3-.6 1.3-1.3s-.6-1.3-1.3-1.3h-9.7c-.7 0-1.3.6-1.3 1.3s.6 1.3 1.3 1.3z"/><path fill="#24292E" d="M91.4 262.3c-.7 0-1.3.6-1.3 1.3s.6 1.3 1.3 1.3H115c.7 0 1.3-.6 1.3-1.3 0-.7-.6-1.3-1.3-1.3H91.4zm52.6 19.3c0-.7-.6-1.3-1.3-1.3h-7.8c-.7 0-1.3.6-1.3 1.3s.6 1.3 1.3 1.3h7.8c.7 0 1.3-.6 1.3-1.3zm-138.2-54c0 .7.6 1.3 1.3 1.3h40.2c.5 0 .9-.2 1.2-.7s.2-.9 0-1.3-.7-.7-1.1-.7H7.1c-.7.1-1.3.7-1.3 1.4zm157.8 0c0-.7-.6-1.3-1.3-1.3h-15.2c-.7 0-1.3.6-1.3 1.3s.6 1.3 1.3 1.3h15.2c.7.1 1.3-.5 1.3-1.3zM51.2 244.2c-.7 0-1.3.6-1.3 1.3 0 .7.6 1.3 1.3 1.3h18c.7 0 1.3-.6 1.3-1.3 0-.7-.6-1.3-1.3-1.3h-18zm63.9 0H81.7c-.7 0-1.3.6-1.3 1.3 0 .7.6 1.3 1.3 1.3h33.4c.7 0 1.3-.6 1.3-1.3 0-.7-.6-1.3-1.3-1.3zm46.4 1.3c0-.7-.6-1.3-1.3-1.3h-21.4c-.7 0-1.3.6-1.3 1.3 0 .7.6 1.3 1.3 1.3h21.4c.7.1 1.3-.5 1.3-1.3zm7.1-1.3c-.7 0-1.3.6-1.3 1.3 0 .7.6 1.3 1.3 1.3h7.9c.7 0 1.3-.6 1.3-1.3 0-.7-.6-1.3-1.3-1.3h-7.9zm-98.4 74.7h35.5c.7 0 1.3-.6 1.3-1.3s-.6-1.3-1.3-1.3H70.2c-.7 0-1.3.6-1.3 1.3s.5 1.3 1.3 1.3zm-13.9-1.4c0-.7-.6-1.3-1.3-1.3H21.5c-.7 0-1.3.6-1.3 1.3 0 .7.6 1.3 1.3 1.3H55c.7 0 1.3-.6 1.3-1.3zm-4.6 19.3H62c.7 0 1.3-.6 1.3-1.3s-.6-1.3-1.3-1.3H51.7c-.7 0-1.3.6-1.3 1.3s.6 1.3 1.3 1.3zm130.2-2.6h-20.3c-.7 0-1.3.6-1.3 1.3s.6 1.3 1.3 1.3h20.3c.7 0 1.3-.6 1.3-1.3s-.6-1.3-1.3-1.3zM72.7 299.5c0-.7-.6-1.3-1.3-1.3H57.1c-.7 0-1.3.6-1.3 1.3 0 .7.6 1.3 1.3 1.3h14.3c.7 0 1.3-.6 1.3-1.3zm19.5 1.3c.7 0 1.3-.6 1.3-1.3 0-.7-.6-1.3-1.3-1.3h-7.7c-.7 0-1.3.6-1.3 1.3 0 .7.6 1.3 1.3 1.3h7.7zm65.4 177.1l-71.8.1c-8.4 0-15.2-6.8-15.2-15.2l-.2-50.3v-5c0-10.6-8.6-19.3-19.3-19.3h-27c-.7 0-1.3.6-1.3 1.3s.6 1.3 1.3 1.3h27.1c9.2 0 16.6 7.5 16.6 16.7v5l.2 50.3c0 4.7 1.9 9.3 5.3 12.6s7.9 5.2 12.7 5.2l71.8-.1c8.4 0 15.2 6.8 15.2 15.2v11.5c0 .7.6 1.3 1.3 1.3.7 0 1.3-.6 1.3-1.3v-11.5c-.1-9.8-8.1-17.8-18-17.8zm-83.4-87.1h25.3c.7 0 1.3-.6 1.3-1.3s-.6-1.3-1.3-1.3H74.2c-.7 0-1.3.6-1.3 1.3s.5 1.3 1.3 1.3zm94.4-2.7H113c-.7 0-1.3.6-1.3 1.3s.6 1.3 1.3 1.3h55.5c.7 0 1.3-.6 1.3-1.3s-.5-1.3-1.2-1.3z"/><path fill="#24292E" d="M57.1 408.7c.7 0 1.3-.6 1.3-1.3s-.6-1.3-1.3-1.3H45.2c-.7 0-1.3.6-1.3 1.3s.6 1.3 1.3 1.3h11.9zm40.3-56.6c-.7 0-1.3.6-1.3 1.3s.6 1.3 1.3 1.3h9c-.7 8.5-7.8 15.3-16.4 15.3h-3.2c-.7 0-1.3.6-1.3 1.3 0 .7.6 1.3 1.3 1.3h30.6c.7 0 1.3-.6 1.3-1.3 0-.7-.6-1.3-1.3-1.3H99.6c5.3-3.1 9-8.8 9.4-15.3h23.8c.7 0 1.3-.6 1.3-1.3s-.6-1.3-1.3-1.3H97.4zM7.1 372.7h29c.7 0 1.3-.6 1.3-1.3 0-.7-.6-1.3-1.3-1.3h-29c-.7 0-1.3.6-1.3 1.3 0 .7.6 1.3 1.3 1.3zm122.7-2.7c-.7 0-1.3.6-1.3 1.3 0 .7.6 1.3 1.3 1.3h5.9c.7 0 1.3-.6 1.3-1.3 0-.7-.6-1.3-1.3-1.3h-5.9zm10.2 74.7c.7 0 1.3-.6 1.3-1.3 0-.7-.6-1.3-1.3-1.3h-28.8c-.7 0-1.3.6-1.3 1.3 0 .7.6 1.3 1.3 1.3h10.9L106.8 460H86.3c-.7 0-1.3.6-1.3 1.3s.6 1.3 1.3 1.3h38.8c.7 0 1.3-.6 1.3-1.3s-.6-1.3-1.3-1.3h-14.5l15.3-15.3H140zM31.8 425.3c0-.7-.6-1.3-1.3-1.3H1.3c-.7 0-1.3.6-1.3 1.3 0 .7.6 1.3 1.3 1.3h29.2c.7 0 1.3-.6 1.3-1.3zm65.1 0c0 .7.6 1.3 1.3 1.3h17.3c.7 0 1.3-.6 1.3-1.3 0-.7-.6-1.3-1.3-1.3H98.3c-.8-.1-1.4.5-1.4 1.3zm51.5 0c0-.7-.6-1.3-1.3-1.3h-19.5c-.7 0-1.3.6-1.3 1.3 0 .7.6 1.3 1.3 1.3h19.5c.8 0 1.3-.6 1.3-1.3zM290 462.6h35.1c.7 0 1.3-.6 1.3-1.3s-.6-1.3-1.3-1.3H290c-.7 0-1.3.6-1.3 1.3s.6 1.3 1.3 1.3zm844-449.2h45.6c.7 0 1.3-.6 1.3-1.3 0-.7-.6-1.3-1.3-1.3h-16.1L1174.2 0h-3.7l-10.7 10.8H1134c-.7 0-1.3.6-1.3 1.3 0 .7.6 1.3 1.3 1.3zm-37.9 0h27.6c.7 0 1.3-.6 1.3-1.3 0-.7-.6-1.3-1.3-1.3h-27.6c-.7 0-1.3.6-1.3 1.3 0 .7.6 1.3 1.3 1.3zm-67.6 0h25c.7 0 1.3-.6 1.3-1.3 0-.7-.6-1.3-1.3-1.3h-25c-.7 0-1.3.6-1.3 1.3-.1.7.5 1.3 1.3 1.3zm224.2 0h22c.7 0 1.3-.6 1.3-1.3s-.6-1.3-1.3-1.3h-22c-.7 0-1.3.6-1.3 1.3 0 .7.6 1.3 1.3 1.3zm-131 15.3c-.7 0-1.3.6-1.3 1.3s.6 1.3 1.3 1.3h13.8c.7 0 1.3-.6 1.3-1.3s-.6-1.3-1.3-1.3h-13.8zm52.6 38.6c.7 0 1.3-.6 1.3-1.3s-.6-1.3-1.3-1.3h-8c-.7 0-1.3.6-1.3 1.3s.6 1.3 1.3 1.3h8zm13.3-1.3c0 .7.6 1.3 1.3 1.3h31.1c.7 0 1.3-.6 1.3-1.3s-.6-1.3-1.3-1.3h-31.1c-.7 0-1.3.6-1.3 1.3zm-50 16.6h-21c-.7 0-1.3.6-1.3 1.3s.6 1.3 1.3 1.3h21c.7 0 1.3-.6 1.3-1.3s-.6-1.3-1.3-1.3zm75.8-33.4c.6 2.5 2.9 4.4 5.6 4.4 3.2 0 5.7-2.6 5.7-5.7 0-3.2-2.6-5.7-5.7-5.7-2.7 0-5 1.9-5.6 4.4h-15.1c-.7 0-1.3.6-1.3 1.3s.6 1.3 1.3 1.3h15.1zm5.6-4.4c.8 0 1.6.3 2.2.9s.9 1.4.9 2.2c0 1.7-1.4 3.1-3.1 3.1-1.7 0-3.1-1.4-3.1-3.1 0-1.7 1.3-3.1 3.1-3.1zm-108.7 91.8h-10.9c-.7 0-1.3.6-1.3 1.3 0 .7.6 1.3 1.3 1.3h10.9c.7 0 1.3-.6 1.3-1.3 0-.8-.6-1.3-1.3-1.3zm32.9 0h-21.3c-.7 0-1.3.6-1.3 1.3 0 .7.6 1.3 1.3 1.3h21.3c.7 0 1.3-.6 1.3-1.3 0-.8-.6-1.3-1.3-1.3zm23.1 0c-.7 0-1.3.6-1.3 1.3 0 .7.6 1.3 1.3 1.3h12.6c.7 0 1.3-.6 1.3-1.3 0-.7-.6-1.3-1.3-1.3h-12.6zm25.7 2.6h33c.5 0 .9-.3 1.1-.7.2-.4.2-.9 0-1.3s-.7-.7-1.1-.7h-33c-.7 0-1.3.6-1.3 1.3 0 .8.6 1.4 1.3 1.4zm81.8 0c.7 0 1.3-.6 1.3-1.3 0-.7-.6-1.3-1.3-1.3h-17.7c-.7 0-1.3.6-1.3 1.3 0 .7.6 1.3 1.3 1.3h17.7zm-81.4-19.4c0-.7-.6-1.3-1.3-1.3h-25.3c-.7 0-1.3.6-1.3 1.3s.6 1.3 1.3 1.3h25.3c.7 0 1.3-.6 1.3-1.3zm22.1 1.3c.7 0 1.3-.6 1.3-1.3s-.6-1.3-1.3-1.3h-9.3c-.7 0-1.3.6-1.3 1.3s.6 1.3 1.3 1.3h9.3zm-111.2 71c0 .7.6 1.3 1.3 1.3h23.9c.7 0 1.3-.6 1.3-1.3s-.6-1.3-1.3-1.3h-23.9c-.7 0-1.3.6-1.3 1.3zm38.1 0c0 .7.6 1.3 1.3 1.3h23.1c.7 0 1.3-.6 1.3-1.3s-.6-1.3-1.3-1.3h-23.1c-.7 0-1.3.6-1.3 1.3zm-55.2 17.6c0 .7.6 1.3 1.3 1.3h25.6c.7 0 1.3-.6 1.3-1.3s-.6-1.3-1.3-1.3h-25.6c-.7 0-1.3.6-1.3 1.3zm185.5 16.6h-21.4c-.7 0-1.3.6-1.3 1.3s.6 1.3 1.3 1.3h21.4c.7 0 1.3-.6 1.3-1.3s-.6-1.3-1.3-1.3zm-121-53.9h-13.4c-.7 0-1.3.6-1.3 1.3s.6 1.3 1.3 1.3h13.4c.7 0 1.3-.6 1.3-1.3s-.6-1.3-1.3-1.3zm41.1 1.3c0-.7-.6-1.3-1.3-1.3H1165c-.7 0-1.3.6-1.3 1.3s.6 1.3 1.3 1.3h14l15.7 15.8h-13.4c-.7 0-1.3.6-1.3 1.3s.6 1.3 1.3 1.3h43.6c.5 0 .9-.3 1.1-.7.2-.4.2-.9 0-1.3s-.7-.7-1.1-.7h-26.5c0-.1-.1-.2-.2-.2l-15.6-15.6h7.7c1 .1 1.5-.5 1.5-1.2zm84.5-1.3h-26c-.7 0-1.3.6-1.3 1.3s.6 1.3 1.3 1.3h26c.7 0 1.3-.6 1.3-1.3s-.6-1.3-1.3-1.3zm-134.1 91.3c0 .7.6 1.3 1.3 1.3h37.4c.7 0 1.3-.6 1.3-1.3s-.6-1.3-1.3-1.3h-37.4c-.7-.1-1.3.5-1.3 1.3zm50.1 0c0 .7.6 1.3 1.3 1.3h18.3c.5 0 .9-.3 1.1-.7.2-.4.2-.9 0-1.3s-.7-.7-1.2-.7h-18.2c-.7 0-1.3.6-1.3 1.4zm78.1 16.5h-20.1c-.7 0-1.3.6-1.3 1.3s.6 1.3 1.3 1.3h20.1c.7 0 1.3-.6 1.3-1.3s-.6-1.3-1.3-1.3zm-46.2-53.9h-26.8c-.7 0-1.3.6-1.3 1.3s.6 1.3 1.3 1.3h26.8c.7 0 1.3-.6 1.3-1.3s-.6-1.3-1.3-1.3zm-60 20.6c.7 0 1.3-.6 1.3-1.3 0-.7-.6-1.3-1.3-1.3h-8.1c-.7 0-1.3.6-1.3 1.3 0 .7.6 1.3 1.3 1.3h8.1zm29.5-2.7h-18.6c-.7 0-1.3.6-1.3 1.3 0 .7.6 1.3 1.3 1.3h18.6c.7 0 1.3-.6 1.3-1.3 0-.7-.6-1.3-1.3-1.3zm79.1 1.3c0-.7-.6-1.3-1.3-1.3h-21c-.7 0-1.3.6-1.3 1.3 0 .7.6 1.3 1.3 1.3h21c.7.1 1.3-.5 1.3-1.3zm-47.1 72.1c0-.7-.6-1.3-1.3-1.3h-45.3c-.7 0-1.3.6-1.3 1.3s.6 1.3 1.3 1.3h45.3c.7 0 1.3-.6 1.3-1.3zm4 17.9c0-.7-.6-1.3-1.3-1.3h-23.9c-.7 0-1.3.6-1.3 1.3s.6 1.3 1.3 1.3h23.9c.7 0 1.3-.6 1.3-1.3zm-36.6-36c0-.7-.6-1.3-1.3-1.3h-36.9c-.7 0-1.3.6-1.3 1.3 0 .7.6 1.3 1.3 1.3h36.9c.7 0 1.3-.6 1.3-1.3zm31.3-1.4h-10c-.6-2.5-2.9-4.4-5.6-4.4-3.2 0-5.7 2.6-5.7 5.7 0 3.2 2.6 5.7 5.7 5.7 2.7 0 5-1.9 5.6-4.4h10c.7 0 1.3-.6 1.3-1.3 0-.7-.6-1.3-1.3-1.3zm-15.6 4.5c-1.7 0-3.1-1.4-3.1-3.1 0-1.7 1.4-3.1 3.1-3.1.8 0 1.6.3 2.2.9.6.6.9 1.4.9 2.2 0 1.7-1.3 3.1-3.1 3.1zm-32.5 88.2h50.8c.7 0 1.3-.6 1.3-1.3s-.6-1.3-1.3-1.3h-50.8c-.7 0-1.3.6-1.3 1.3s.6 1.3 1.3 1.3zm-49 16.6c0-.7-.6-1.3-1.3-1.3h-49.9c-.7 0-1.3.6-1.3 1.3s.6 1.3 1.3 1.3h49.9c.7 0 1.3-.6 1.3-1.3zm12.6-1.4c-.7 0-1.3.6-1.3 1.3s.6 1.3 1.3 1.3h26.1c.7 0 1.3-.6 1.3-1.3 0-.7-.6-1.3-1.3-1.3h-26.1zm-8.1-52.6c0 .7.6 1.3 1.3 1.3h12.4c.7 0 1.3-.6 1.3-1.3s-.6-1.3-1.3-1.3h-12.4c-.7 0-1.3.6-1.3 1.3zm141.1-1.3h-20.2c-.7 0-1.3.6-1.3 1.3s.6 1.3 1.3 1.3h20.1c.5 0 .9-.2 1.2-.7.2-.4.2-.9 0-1.3-.2-.3-.6-.6-1.1-.6zm-103.8 19.2c0-.7-.6-1.3-1.3-1.3h-29.6c-.7 0-1.3.6-1.3 1.3 0 .7.6 1.3 1.3 1.3h16.4l-15.5 15.5h-15.3c-.7 0-1.3.6-1.3 1.3s.6 1.3 1.3 1.3h40.6c.7 0 1.3-.6 1.3-1.3s-.6-1.3-1.3-1.3h-21.5l15.5-15.5h9.5c.6.1 1.2-.5 1.2-1.3zm16.5-1.3c-.7 0-1.3.6-1.3 1.3 0 .7.6 1.3 1.3 1.3h12.6c.7 0 1.3-.6 1.3-1.3 0-.7-.6-1.3-1.3-1.3h-12.6zm-136.1 91.3c0 .7.6 1.3 1.3 1.3h14.6c.5 0 .9-.3 1.1-.7.2-.4.2-.9 0-1.3s-.7-.7-1.1-.7h-14.5c-.8.1-1.4.7-1.4 1.4zm191.1-1.3h-31.4c-.7 0-1.3.6-1.3 1.3s.6 1.3 1.3 1.3h31.4c.7 0 1.3-.6 1.3-1.3s-.5-1.3-1.3-1.3zm30.1 0h-16.9c-.7 0-1.3.6-1.3 1.3s.6 1.3 1.3 1.3h16.9c.7 0 1.3-.6 1.3-1.3s-.6-1.3-1.3-1.3zm-75.6 20.5c.7 0 1.3-.6 1.3-1.3s-.6-1.3-1.3-1.3h-11.8c-.7 0-1.3.6-1.3 1.3s.6 1.3 1.3 1.3h11.8zm-24.5-1.3c0-.7-.6-1.3-1.3-1.3h-22.9c-.7 0-1.3.6-1.3 1.3s.6 1.3 1.3 1.3h22.9c.7 0 1.3-.6 1.3-1.3zm-155.5.7c.2-.4.2-.9 0-1.3s-.7-.7-1.1-.7h-19.2c-.7 0-1.3.6-1.3 1.3s.6 1.3 1.3 1.3h19.2c.4 0 .9-.2 1.1-.6zm-30.4-2h-55.5c-.7 0-1.3.6-1.3 1.3s.6 1.3 1.3 1.3h55.5c.7 0 1.3-.6 1.3-1.3s-.5-1.3-1.3-1.3zm88.9 0h-44.5c-.7 0-1.3.6-1.3 1.3s.6 1.3 1.3 1.3h44.5c.7 0 1.3-.6 1.3-1.3s-.6-1.3-1.3-1.3zm148.5 17.9H1164c-.7 0-1.3.6-1.3 1.3s.6 1.3 1.3 1.3h58.1c.7 0 1.3-.6 1.3-1.3s-.6-1.3-1.3-1.3zm-177 0h-32.3c-.7 0-1.3.6-1.3 1.3s.6 1.3 1.3 1.3h32.3c.7 0 1.3-.6 1.3-1.3s-.5-1.3-1.3-1.3zm-94.7 0h-16.6c-.7 0-1.3.6-1.3 1.3s.6 1.3 1.3 1.3h16.6c.7 0 1.3-.6 1.3-1.3s-.5-1.3-1.3-1.3zm-28.1 0h-59.8c-.7 0-1.3.6-1.3 1.3s.6 1.3 1.3 1.3h59.8c.7 0 1.3-.6 1.3-1.3 0-.7-.6-1.3-1.3-1.3zm-652.9-15.3h14.7c.7 0 1.3-.6 1.3-1.3 0-.7-.6-1.3-1.3-1.3h-14.7c-.7 0-1.3.6-1.3 1.3s.6 1.3 1.3 1.3zm-231.3-1.3c0 .7.6 1.3 1.3 1.3h17.5c.7 0 1.3-.6 1.3-1.3s-.6-1.3-1.3-1.3H39.4c-.7 0-1.3.6-1.3 1.3zm256.6-1.3c-.7 0-1.3.6-1.3 1.3s.6 1.3 1.3 1.3h15.7c.7 0 1.3-.6 1.3-1.3s-.6-1.3-1.3-1.3h-15.7zm16.4 17.9H253c-.7 0-1.3.6-1.3 1.3s.6 1.3 1.3 1.3h58.1c.7 0 1.3-.6 1.3-1.3s-.6-1.3-1.3-1.3zm-71.2 0h-53.4c-.7 0-1.3.6-1.3 1.3s.6 1.3 1.3 1.3h53.4c.7 0 1.3-.6 1.3-1.3s-.5-1.3-1.3-1.3zm-78 0h-14c-.7 0-1.3.6-1.3 1.3s.6 1.3 1.3 1.3h14c.7 0 1.3-.6 1.3-1.3.1-.7-.5-1.3-1.3-1.3zm-75.6 0H22.8c-.7 0-1.3.6-1.3 1.3s.6 1.3 1.3 1.3h63.5c.7 0 1.3-.6 1.3-1.3s-.6-1.3-1.3-1.3zm295.9 0h-58.1c-.7 0-1.3.6-1.3 1.3s.6 1.3 1.3 1.3h58.1c.7 0 1.3-.6 1.3-1.3s-.5-1.3-1.3-1.3zm729.8-71.9c-.7 0-1.3.6-1.3 1.3 0 .7.6 1.3 1.3 1.3h11.7c.7 0 1.3-.6 1.3-1.3 0-.7-.6-1.3-1.3-1.3H1112zm159.4 0h-115.7c-9.9 0-17.9 8-17.9 17.9v20.8c0 8.4-6.8 15.2-15.2 15.2h-25.8c-.6-2.5-2.9-4.4-5.6-4.4-3.2 0-5.7 2.6-5.7 5.7s2.6 5.7 5.7 5.7c2.7 0 5-1.9 5.6-4.4h25.8c9.9 0 17.9-8 17.9-17.9v-20.8c0-8.4 6.8-15.2 15.2-15.2h115.7c.7 0 1.3-.6 1.3-1.3s-.5-1.3-1.3-1.3zm-180.2 58.4c-1.7 0-3.1-1.4-3.1-3.1s1.4-3.1 3.1-3.1c.8 0 1.6.3 2.2.9s.9 1.4.9 2.2c0 1.7-1.4 3.1-3.1 3.1zM162.3 442h-11.2c-.7 0-1.3.6-1.3 1.3 0 .7.6 1.3 1.3 1.3h11.2c.6 2.6 2.9 4.5 5.6 4.5 3.2 0 5.7-2.6 5.7-5.7 0-3.2-2.6-5.7-5.7-5.7-2.7-.1-4.9 1.8-5.6 4.3zm8.7 1.4c0 1.7-1.4 3.1-3.1 3.1s-3.1-1.4-3.1-3.1c0-1.7 1.4-3.1 3.1-3.1.8 0 1.6.3 2.2.9s.9 1.4.9 2.2zM1230.4 85.2h20c.7 0 1.3-.6 1.3-1.3s-.6-1.3-1.3-1.3h-30.2c-.7 0-1.3.6-1.3 1.3s.6 1.3 1.3 1.3h7.5c-.6 8.5-7.7 15.3-16.4 15.3h-13c-.7 0-1.3.6-1.3 1.3s.6 1.3 1.3 1.3h37.3c.7 0 1.3-.6 1.3-1.3s-.6-1.3-1.3-1.3H1221c5.3-3.1 9-8.7 9.4-15.3z"/><path fill="#24292E" d="M1277.9 28.7l-106.3-.1c-9.9 0-17.8 8-17.9 17.8l-.1 27.5c-3.1-5.2-8.8-8.7-15.3-8.7l-54.5.1c-8.4 0-15.2-6.8-15.2-15.2V0h-2.6l.1 50.2c0 9.9 8 17.8 17.9 17.8l54.5-.1c8.2 0 15 6.6 15.2 14.8l-.1 49.9v6.4c0 9.9 8 17.9 17.9 17.9h49c8.4 0 15.2 6.8 15.2 15.2v146.7c0 9.9 8 17.9 17.9 17.9h18c.5 0 .9-.2 1.1-.7s.2-.9 0-1.3-.7-.7-1.1-.7h-18.1c-8.4 0-15.2-6.8-15.2-15.2V172c0-9.9-8-17.9-17.9-17.9h-49c-8.4 0-15.2-6.8-15.2-15.2l.2-92.6c0-8.4 6.8-15.2 15.2-15.2l106.3.1c.7 0 1.3-.6 1.3-1.3s-.6-1.2-1.3-1.2z"/></svg>