<svg xmlns="http://www.w3.org/2000/svg" viewBox="0 0 1280 581" opacity=".3"><path fill="#24292E" d="M.1 93.7c0 .8.7 1.5 1.5 1.5h169.5c10.1 0 18.2-8.2 18.2-18.2V60.3c2.5-.7 4.3-2.9 4.3-5.6 0-3.2-2.6-5.8-5.8-5.8s-5.8 2.6-5.8 5.8c0 2.7 1.8 4.9 4.3 5.6V77c0 8.4-6.8 15.2-15.2 15.2H1.6c-.8 0-1.5.7-1.5 1.5zm184.9-39c0-1.5 1.3-2.8 2.8-2.8s2.8 1.3 2.8 2.8c0 1.5-1.3 2.8-2.8 2.8s-2.8-1.2-2.8-2.8zm947.5-36.9V27c0 10.1 8.2 18.2 18.2 18.2h128.2c.8 0 1.5-.7 1.5-1.5s-.7-1.5-1.5-1.5h-128.2c-8.4 0-15.2-6.8-15.2-15.2v-9.1c2.4-.7 4.3-2.9 4.3-5.6 0-3.2-2.6-5.8-5.8-5.8s-5.8 2.6-5.8 5.8c0 2.6 1.8 4.9 4.3 5.5zm1.5-8.3c1.5 0 2.8 1.3 2.8 2.8 0 1.5-1.2 2.8-2.8 2.8s-2.8-1.3-2.8-2.8c0-1.6 1.2-2.8 2.8-2.8zM1 7.4h116c.7 2.5 2.9 4.3 5.6 4.3 3.2 0 5.8-2.6 5.8-5.8S125.8.1 122.6.1c-2.7 0-4.9 1.8-5.6 4.3H1c-.8 0-1.5.7-1.5 1.5S.2 7.4 1 7.4zm121.6-4.3c1.5 0 2.8 1.3 2.8 2.8s-1.3 2.8-2.8 2.8c-1.5 0-2.8-1.3-2.8-2.8s1.3-2.8 2.8-2.8zm1156.3 295.1h-113.4c-.7-2.5-2.9-4.3-5.6-4.3-3.2 0-5.8 2.6-5.8 5.8s2.6 5.8 5.8 5.8c2.7 0 4.9-1.8 5.6-4.3h113.4c.8 0 1.5-.7 1.5-1.5s-.7-1.5-1.5-1.5zm-118.9 4.3c-1.5 0-2.8-1.2-2.8-2.8s1.2-2.8 2.8-2.8 2.8 1.3 2.8 2.8-1.3 2.8-2.8 2.8zM1 329.3h94.9c.7 2.5 2.9 4.3 5.6 4.3 3.2 0 5.8-2.6 5.8-5.8s-2.6-5.8-5.8-5.8c-2.7 0-4.9 1.8-5.6 4.3H1c-.8 0-1.5.7-1.5 1.5s.7 1.5 1.5 1.5zm100.5-4.3c1.5 0 2.8 1.3 2.8 2.8s-1.3 2.8-2.8 2.8-2.8-1.2-2.8-2.8 1.3-2.8 2.8-2.8zm-8.6-174.3H2.3c-.8 0-1.5.7-1.5 1.5s.7 1.5 1.5 1.5h90.6c.7 2.5 2.9 4.3 5.6 4.3 3.2 0 5.8-2.6 5.8-5.8s-2.6-5.8-5.8-5.8c-2.7.1-5 1.9-5.6 4.3zm8.3 1.5c0 1.5-1.3 2.8-2.8 2.8s-2.8-1.3-2.8-2.8 1.3-2.8 2.8-2.8 2.8 1.3 2.8 2.8zm89.2 133.2c-2.7 0-4.9 1.8-5.6 4.3h-35.5c-8.4 0-15.2-6.8-15.2-15.2v-49.6c0-10.1-8.2-18.2-18.2-18.2h-8.6v-15.5c2.5-.7 4.3-2.9 4.3-5.6 0-3.2-2.6-5.8-5.8-5.8-3.2 0-5.8 2.6-5.8 5.8 0 2.7 1.8 4.9 4.3 5.6v15.5H73.8v-17.2c0-10.1-8.2-18.2-18.2-18.2H1c-.8 0-1.5.7-1.5 1.5s.7 1.5 1.5 1.5h54.5c8.4 0 15.2 6.8 15.2 15.2v17.2H.7c-.8 0-1.5.7-1.5 1.5s.7 1.5 1.5 1.5h70.2v6c0 10.1 8.2 18.2 18.2 18.2s18.2-8.2 18.2-18.2v-6h8.6c8.4 0 15.2 6.8 15.2 15.2v49.6c0 10.1 8.2 18.2 18.2 18.2h35.5c.7 2.5 2.9 4.3 5.6 4.3 3.2 0 5.8-2.6 5.8-5.8s-2.6-5.8-5.8-5.8zm-86.1-69.7c0 8.4-6.8 15.2-15.2 15.2s-15.2-6.8-15.2-15.2v-6h30.5v6zm1.5-27.4c-1.5 0-2.8-1.3-2.8-2.8s1.3-2.8 2.8-2.8c1.5 0 2.8 1.3 2.8 2.8s-1.3 2.8-2.8 2.8zM190.4 294c-1.5 0-2.8-1.2-2.8-2.7v-.1c0-1.5 1.3-2.7 2.8-2.7 1.5 0 2.8 1.3 2.8 2.8s-1.2 2.7-2.8 2.7zm-56 73.5c-2.7 0-4.9 1.8-5.6 4.3H89.7c-10.1 0-18.2 8.2-18.2 18.2v36.7H1c-.8 0-1.5.7-1.5 1.5s.7 1.5 1.5 1.5h70.4v12c0 8.4-6.8 15.2-15.1 15.2H1c-.8 0-1.5.7-1.5 1.5s.7 1.5 1.5 1.5h55.3c10 0 18.1-8.2 18.1-18.2v-12h18.4c.7 2.5 2.9 4.3 5.6 4.3 3.2 0 5.8-2.6 5.8-5.8s-2.6-5.8-5.8-5.8c-2.7 0-4.9 1.8-5.6 4.3H74.4V390c0-8.4 6.8-15.2 15.2-15.2h39.1c.7 2.5 2.9 4.3 5.6 4.3 3.2 0 5.8-2.6 5.8-5.8s-2.5-5.8-5.7-5.8zm-36 57.9c1.5 0 2.8 1.2 2.8 2.8s-1.3 2.8-2.8 2.8-2.8-1.3-2.8-2.8 1.3-2.8 2.8-2.8zm36-49.3c-1.5 0-2.8-1.2-2.8-2.8s1.3-2.8 2.8-2.8 2.8 1.3 2.8 2.8-1.3 2.8-2.8 2.8zm1145.4 201.7h-79.7c-8.4 0-15.2-6.9-15.1-15.2V511c0-10.1-8.2-18.2-18.2-18.2h-30.3c-.7-2.5-2.9-4.3-5.6-4.3-3.2 0-5.8 2.6-5.8 5.8s2.6 5.8 5.8 5.8c2.7 0 4.9-1.8 5.6-4.3h30.3c8.4 0 15.2 6.8 15.2 15.2v51.6c0 10 8.1 18.2 18.1 18.2h79.7c.8 0 1.5-.7 1.5-1.5s-.6-1.5-1.5-1.5zM1131 497c-1.5 0-2.8-1.3-2.8-2.8s1.3-2.8 2.8-2.8 2.8 1.2 2.8 2.8-1.3 2.8-2.8 2.8zM122.5 544.3l.1-11.3c0-10.1-8.1-18.3-18.2-18.3L1 514.6c-.8 0-1.5.7-1.5 1.5s.7 1.5 1.5 1.5l103.3.1c8.4 0 15.2 6.9 15.2 15.3l-.1 11.3c-2.4.7-4.2 2.9-4.2 5.6 0 3.2 2.6 5.8 5.8 5.8s5.8-2.6 5.8-5.8c0-2.7-1.8-5-4.3-5.6zm-1.4 8.3c-1.5 0-2.8-1.3-2.8-2.8s1.3-2.8 2.8-2.8 2.8 1.2 2.8 2.8-1.3 2.8-2.8 2.8zm1036-138.4c0 10.1 8.2 18.2 18.2 18.2h104.5c.8 0 1.5-.7 1.5-1.5s-.7-1.5-1.5-1.5h-104.5c-8.4 0-15.2-6.8-15.2-15.2v-5.1H1279c.8 0 1.5-.7 1.5-1.5s-.7-1.5-1.5-1.5h-118.9v-31.2c2.5-.7 4.3-2.9 4.3-5.6 0-3.2-2.6-5.8-5.8-5.8s-5.8 2.6-5.8 5.8c0 2.7 1.8 4.9 4.3 5.6v31.2H1087c-10.1 0-18.2 8.2-18.2 18.2V441c-2.5.7-4.3 2.9-4.3 5.6 0 3.2 2.6 5.8 5.8 5.8s5.8-2.6 5.8-5.8c0-2.7-1.8-4.9-4.3-5.6v-16.6c0-8.4 6.8-15.2 15.2-15.2h70.1v5zm-1.3-44.9c0-1.5 1.3-2.8 2.8-2.8s2.8 1.3 2.8 2.8-1.2 2.8-2.8 2.8-2.8-1.3-2.8-2.8zm-82.8 77.2c0 1.5-1.2 2.8-2.8 2.8s-2.8-1.2-2.8-2.8 1.3-2.8 2.8-2.8 2.8 1.3 2.8 2.8zm131.5-367.4c-.7-2.5-2.9-4.3-5.6-4.3-3.2 0-5.8 2.6-5.8 5.8 0 3.2 2.6 5.8 5.8 5.8 2.7 0 4.9-1.8 5.6-4.3h75c.8 0 1.5-.7 1.5-1.5s-.7-1.5-1.5-1.5h-75zm-5.6 4.2c-1.5 0-2.8-1.3-2.8-2.8 0-1.5 1.2-2.8 2.8-2.8s2.8 1.3 2.8 2.8c0 1.6-1.3 2.8-2.8 2.8zm-132.1 77.9c0 4.9 1.9 9.5 5.3 12.9 3.4 3.4 8 5.3 12.9 5.3h101.3v9.2c0 10.1 8.2 18.2 18.2 18.2h74.3c.8 0 1.5-.7 1.5-1.5s-.7-1.5-1.5-1.5h-74.3c-8.4 0-15.2-6.8-15.2-15.2v-9.2h89.6c.8 0 1.5-.7 1.5-1.5s-.7-1.5-1.5-1.5h-89.6v-49.2c0-10-8.1-18.2-18.1-18.2h-11.6c-.7-2.5-2.9-4.3-5.6-4.3-3.2 0-5.8 2.6-5.8 5.8s2.6 5.8 5.8 5.8c2.7 0 4.9-1.8 5.6-4.3h11.6c8.4 0 15.1 6.9 15.1 15.2v49.2H1085c-4.1 0-7.9-1.6-10.8-4.5-2.9-2.9-4.5-6.7-4.5-10.8v-15c2.5-.7 4.3-2.9 4.3-5.6 0-3.2-2.6-5.8-5.8-5.8s-5.8 2.6-5.8 5.8c0 2.7 1.8 4.9 4.3 5.6v15.1zm87.3-48c-1.5 0-2.8-1.3-2.8-2.8s1.2-2.8 2.8-2.8 2.8 1.3 2.8 2.8-1.3 2.8-2.8 2.8zm-88.6 27.4c0-1.5 1.3-2.8 2.8-2.8s2.8 1.3 2.8 2.8-1.2 2.8-2.8 2.8-2.8-1.2-2.8-2.8z"/></svg>