<svg xmlns="http://www.w3.org/2000/svg" viewBox="0 0 150 30.1"><g fill="#323D3F"><path d="M47.8 2H56c5.1 0 7.6 3 7.6 8.1 0 3.8-1.4 6.3-4 7.6l4.1 10.4h-4.2l-3.6-9.5h-4.2v9.5h-3.9V2zm3.9 3.4v9.7h3.8c2.6 0 4.1-1.7 4.1-4.9 0-3.1-1.3-4.8-4.1-4.8h-3.8zM67.4 15c0-9.4 3-13.5 9.3-13.5C83.2 1.5 86 5.6 86 15s-3 13.6-9.3 13.6c-6.5 0-9.3-4.2-9.3-13.6zm4 .1c0 7.6 1.8 10.1 5.3 10.1S82 22.8 82 15c0-7.6-1.8-10-5.3-10s-5.3 2.3-5.3 10.1zm18.7-.1c0-9.6 3.1-13.5 9.3-13.5 3.9 0 6.8 1.6 8 6.7L104 9.4c-.8-3.3-2.3-4.4-4.6-4.4-3.4 0-5.3 2.2-5.3 10 0 7.9 1.9 10.1 5.4 10.1 2.2 0 3.9-1.2 4.9-4.6l3.3 1.4c-1.3 4.6-4.3 6.6-8.3 6.6-6.3.1-9.3-3.9-9.3-13.5zm21.7-13h8.2c5.1 0 7.6 3 7.6 8.1 0 3.8-1.4 6.3-4 7.6l4.1 10.4h-4.2l-3.6-9.5h-4.2v9.5h-3.9V2zm3.9 3.4v9.7h3.8c2.6 0 4.1-1.7 4.1-4.9 0-3.1-1.3-4.8-4.1-4.8h-3.8zm15.7 9.6c0-9.4 3-13.5 9.3-13.5 6.5 0 9.3 4.1 9.3 13.5s-3 13.6-9.3 13.6c-6.5 0-9.3-4.2-9.3-13.6zm4 .1c0 7.6 1.8 10.1 5.3 10.1S146 22.8 146 15c0-7.6-1.8-10-5.3-10s-5.3 2.3-5.3 10.1z"/><path opacity=".4" d="M9 30.1c-2.1 0-3.1-1.7-2.4-3.8l8.2-22.5C15.6 1.7 17.9 0 20 0s3.1 1.7 2.4 3.8l-8.2 22.5c-.8 2.1-3.1 3.8-5.2 3.8z"/><path d="M6.6 26.3l8.1-22.4 1-2.6c.3-.7-.1-1.3-.8-1.3h-2.5C10.3 0 8 1.7 7.3 3.8L.5 22.5C-1 26.6 1.1 30 5.3 30H9c-2.1.1-3.1-1.6-2.4-3.7zM23.7 0H20c2.1 0 3.1 1.7 2.4 3.8l-2 5.5-4.8 13.2c-1.5 4.1.6 7.5 4.8 7.5H24c-2.1 0-3.1-1.7-2.4-3.8L25.8 15l2.7-7.5C30 3.4 27.9 0 23.7 0z"/><path opacity=".4" d="M24 30.1c-2.1 0-3.1-1.7-2.4-3.8L25.8 15h3.8c2.1 0 3.1 1.7 2.4 3.8l-2.7 7.5c-.9 2.1-3.2 3.8-5.3 3.8z"/></g></svg>