<svg width="648" height="518" viewBox="0 0 648 518" xmlns="http://www.w3.org/2000/svg"><title>universe pattern</title><g fill="none" fill-rule="evenodd" opacity=".1"><g transform="translate(445 367)"><g transform="rotate(-15 182.757 -10.158)" stroke="#2C3237" stroke-linecap="round" stroke-linejoin="round" stroke-width="4.148"><ellipse transform="rotate(-6.41 42.366 24.162)" cx="42.366" cy="24.162" rx="21.565" ry="21.5"/><path d="M62.72 17.091c12.756-.479 21.476.338 21.701 2.368.339 3.03-18.217 7.551-41.445 10.131C19.75 32.17.641 31.88.303 28.874c-.226-2 7.859-4.669 20.105-6.977"/></g><ellipse stroke="#2C3237" stroke-width="3.2" cx="112.112" cy="91.878" rx="9.611" ry="9.585"/><ellipse stroke="#2C3237" stroke-width="3.2" cx="138.538" cy="27.164" rx="6.408" ry="6.389"/><ellipse stroke="#2C3237" stroke-width="3.2" cx="162.562" cy="127.032" rx="22.424" ry="22.368"/><path d="M191.657 7.489c3.87 2.173 5.222 2.168 9.076-.032-2.178 3.861-2.173 5.209.032 9.054-3.87-2.173-5.221-2.167-9.076.032 2.173-3.861 2.173-5.214-.032-9.054z" fill="#2C3237" fill-rule="nonzero"/><path d="M191.657 7.489c3.87 2.173 5.222 2.168 9.076-.032-2.178 3.861-2.173 5.209.032 9.054-3.87-2.173-5.221-2.167-9.076.032 2.173-3.861 2.173-5.214-.032-9.054z" stroke="#2C3237" stroke-width="3.733" stroke-linejoin="round"/><path d="M63.53 126.531c3.87 2.173 5.221 2.168 9.076-.032-2.179 3.862-2.173 5.21.032 9.055-3.87-2.173-5.222-2.168-9.076.032 2.173-3.862 2.173-5.215-.032-9.055z" fill="#2C3237" fill-rule="nonzero"/><path d="M63.53 126.531c3.87 2.173 5.221 2.168 9.076-.032-2.179 3.862-2.173 5.21.032 9.055-3.87-2.173-5.222-2.168-9.076.032 2.173-3.862 2.173-5.215-.032-9.055z" stroke="#2C3237" stroke-width="3.733" stroke-linejoin="round"/><path d="M89.912.249c3.225 1.81 4.35 1.806 7.563-.027-1.815 3.218-1.81 4.34.026 7.545-3.225-1.81-4.35-1.806-7.563.027C91.75 4.576 91.75 3.45 89.912.25z" fill="#2C3237" fill-rule="nonzero"/><path d="M89.912.249c3.225 1.81 4.35 1.806 7.563-.027-1.815 3.218-1.81 4.34.026 7.545-3.225-1.81-4.35-1.806-7.563.027C91.75 4.576 91.75 3.45 89.912.25z" stroke="#2C3237" stroke-width="3.111" stroke-linejoin="round"/><path d="M180.195 75.1c-1.192-4.254-2.148-5.207-6.422-6.37 4.264-1.19 5.22-2.148 6.386-6.413 1.192 4.255 2.152 5.208 6.427 6.371-4.27 1.195-5.225 2.148-6.391 6.413z" fill="#2C3237" fill-rule="nonzero"/><path d="M179.394 75.1c-1.192-4.254-2.148-5.207-6.422-6.37 4.264-1.19 5.22-2.148 6.386-6.413 1.192 4.255 2.153 5.208 6.427 6.371-4.27 1.195-5.225 2.148-6.391 6.413z" stroke="#2C3237" stroke-width="3.584" stroke-linecap="round" stroke-linejoin="round"/><path d="M5.83 40.746C4.825 37.29 4.02 36.515.42 35.57c3.591-.967 4.396-1.745 5.378-5.21 1.004 3.456 1.813 4.23 5.412 5.176-3.595.97-4.4 1.745-5.382 5.21z" fill="#2C3237" fill-rule="nonzero"/><path d="M5.408 40.746C4.404 37.29 3.599 36.515 0 35.57c3.59-.967 4.395-1.745 5.378-5.21 1.003 3.456 1.812 4.23 5.412 5.176-3.595.97-4.4 1.745-5.382 5.21z" stroke="#2C3237" stroke-width="3.018" stroke-linecap="round" stroke-linejoin="round"/></g><g transform="matrix(1 0 0 -1 3 52)"><ellipse stroke="#2C3237" stroke-width="3.2" cx="520.6" cy="24.624" rx="8" ry="8.024"/><ellipse stroke="#2C3237" stroke-width="3.2" cx="38.2" cy="21.299" rx="4.8" ry="4.816"/><path d="M14.422 37.539c3.222 1.818 4.347 1.813 7.556-.027-1.814 3.23-1.81 4.358.026 7.575-3.222-1.818-4.346-1.814-7.555.027 1.809-3.23 1.809-4.363-.027-7.575z" fill="#2C3237" fill-rule="nonzero"/><path d="M14.422 37.539c3.222 1.818 4.347 1.813 7.556-.027-1.814 3.23-1.81 4.358.026 7.575-3.222-1.818-4.346-1.814-7.555.027 1.809-3.23 1.809-4.363-.027-7.575z" stroke="#2C3237" stroke-width="3.111" stroke-linejoin="round"/><path d="M8.22 16.264C6.73 10.926 5.537 9.729.2 8.269 5.525 6.777 6.718 5.575 8.174.223c1.489 5.339 2.688 6.535 8.026 7.995-5.331 1.499-6.524 2.695-7.98 8.046z" fill="#2C3237" fill-rule="nonzero"/><path d="M8.22 16.264C6.73 10.926 5.537 9.729.2 8.269 5.525 6.777 6.718 5.575 8.174.223c1.489 5.339 2.688 6.535 8.026 7.995-5.331 1.499-6.524 2.695-7.98 8.046z" stroke="#2C3237" stroke-width="4.48" stroke-linecap="round" stroke-linejoin="round"/><path d="M555.652 39.622c.993 3.564 1.791 4.356 5.361 5.324-3.566 1.002-4.36 1.802-5.337 5.375-.993-3.564-1.791-4.356-5.361-5.324 3.563-1.005 4.363-1.805 5.337-5.375z" fill="#2C3237" fill-rule="nonzero"/><path d="M555.652 39.622c.993 3.564 1.791 4.356 5.361 5.324-3.566 1.002-4.36 1.802-5.337 5.375-.993-3.564-1.791-4.356-5.361-5.324 3.563-1.005 4.363-1.805 5.337-5.375z" stroke="#2C3237" stroke-width="3.111" stroke-linejoin="round"/></g></g></svg>