<svg xmlns="http://www.w3.org/2000/svg" viewBox="0 0 205 153"><path fill="#EFF0F0" d="M76.7 46.8c-6.3-8-17.3-11.3-27.3-7.4-5.9 2.3-10.5 6.8-13 12.5-1.6 3.7-2.2 7.6-1.9 11.5-19.6 9.5-18.4 12.5-17.8 14.2.5 1.3 1.6 2.1 4.6 2.1 2.3 0 5.7-.5 10.8-1.8 2.3-.6 4.7-1.3 7.3-2C43.9 81.6 50.8 85 58 85c2.9 0 5.8-.5 8.6-1.6 10-3.9 15.8-13.8 14.9-24 2.4-1.2 4.7-2.3 6.7-3.5 10.4-5.7 12-8.4 11.1-10.7-.6-1.7-1.8-4.7-22.6 1.6zM21.8 75.5c1.8-1.5 5.8-4.2 13.5-7.9.2.8.5 1.6.8 2.3.3.8.7 1.5 1 2.2-7.3 2.2-12.6 3.3-15.3 3.4zm19.3-4.6c-.5-.8-.9-1.6-1.2-2.5-1.9-4.8-1.8-10.1.3-14.9 2.1-4.8 5.9-8.4 10.8-10.3 2.3-.9 4.7-1.4 7.1-1.4 6.3 0 12.3 3.1 16 8.3 0 .1.1.2.2.3.8 1.2 1.5 2.4 2 3.8.3.9.6 1.8.8 2.7-5 2.4-10.9 4.9-17.7 7.6-6.9 2.6-13 4.8-18.3 6.4zm24 8.5c-7.7 3-16.2.8-21.4-4.9 5.4-1.7 11.2-3.8 17.1-6.1 5.9-2.3 11.6-4.7 16.7-7.1 0 7.7-4.7 15.1-12.4 18.1zm15.7-24.3c-.2-.8-.5-1.6-.8-2.4-.3-.8-.6-1.5-1-2.3 8.2-2.4 13-3.2 15.3-3.3-2 1.8-6.7 4.6-13.5 8zm33.3 27.6c-6.2 0-11.2 5-11.2 11.2 0 6.2 5 11.2 11.2 11.2s11.2-5 11.2-11.2c0-6.2-5-11.2-11.2-11.2zm0 19.2c-4.4 0-8-3.6-8-8s3.6-8 8-8 8 3.6 8 8-3.6 8-8 8zm34.4-72.7c0-4.4-3.6-8-8-8s-8 3.6-8 8 3.6 8 8 8 8-3.6 8-8zm-12.8 0c0-2.6 2.2-4.8 4.8-4.8s4.8 2.1 4.8 4.8c0 2.6-2.2 4.8-4.8 4.8s-4.8-2.2-4.8-4.8zm28.9 75.9c-13.2 0-24 10.8-24 24s10.8 24 24 24 24-10.8 24-24c0-13.3-10.8-24-24-24zm0 44.7c-11.5 0-20.8-9.3-20.8-20.8s9.3-20.8 20.8-20.8 20.8 9.3 20.8 20.8-9.4 20.8-20.8 20.8zm39.8-132.2c-1.9-3.3-1.9-3.9 0-7.2.4-.7.3-1.6-.3-2.2-.6-.6-1.5-.7-2.2-.3-3.3 1.9-4 1.9-7.2 0-.7-.4-1.7-.3-2.2.3-.6.6-.7 1.5-.3 2.2 1.9 3.3 1.9 3.9 0 7.2-.4.7-.3 1.6.3 2.2.4.4.8.5 1.3.5.3 0 .6-.1.9-.2 3.3-1.9 3.9-1.9 7.2 0 .7.4 1.6.3 2.2-.3s.7-1.5.3-2.2zM76.2 129.4c.4-.7.3-1.6-.3-2.2-.6-.6-1.5-.7-2.2-.3-3.3 1.9-3.9 1.9-7.2 0-.7-.4-1.6-.3-2.2.3-.6.6-.7 1.5-.3 2.2 1.9 3.3 1.9 3.9 0 7.2-.4.7-.3 1.6.3 2.2.4.4.8.5 1.3.5.3 0 .6-.1.9-.2 3.3-1.9 3.9-1.9 7.2 0 .7.4 1.6.3 2.2-.3.6-.6.7-1.5.3-2.2-1.8-3.2-1.8-3.9 0-7.2zM100.8 3c.3-.6.2-1.4-.3-1.9S99.2.5 98.6.9c-2.7 1.6-3.3 1.6-6 0-.6-.3-1.4-.2-1.9.3s-.6 1.3-.2 1.9c1.6 2.7 1.6 3.3 0 6-.3.6-.2 1.4.3 1.9.3.3.7.5 1.1.5.3 0 .5-.1.8-.2 2.7-1.6 3.3-1.6 6 0 .6.3 1.4.2 1.9-.3s.6-1.3.2-1.9c-1.5-2.8-1.5-3.4 0-6.1zm87.5 66c-3.7-1-4.2-1.5-5.2-5.1-.2-.8-.9-1.3-1.7-1.3-.8 0-1.5.5-1.7 1.3-1 3.7-1.5 4.1-5.1 5.2-.8.2-1.3.9-1.3 1.7 0 .8.5 1.5 1.3 1.7 3.7 1 4.1 1.5 5.2 5.1.2.8.9 1.3 1.7 1.3.8 0 1.5-.5 1.7-1.3 1-3.7 1.5-4.1 5.1-5.2.8-.2 1.3-.9 1.3-1.7s-.6-1.5-1.3-1.7zM13.2 36.1c-3.1-.8-3.5-1.2-4.3-4.1-.2-.6-.8-1.1-1.4-1.1-.7 0-1.3.5-1.4 1.1-.8 2.9-1.2 3.3-4.3 4.2-.7.2-1.1.8-1.1 1.5s.5 1.3 1.1 1.5c3.1.8 3.5 1.2 4.3 4.1.2.6.8 1.1 1.4 1.1.7 0 1.3-.5 1.4-1.1.8-2.9 1.2-3.3 4.3-4.2.7-.2 1.1-.8 1.1-1.5 0-.8-.5-1.3-1.1-1.5z"/></svg>