<svg id="Layer_1" xmlns="http://www.w3.org/2000/svg" viewBox="0 0 145 157"><style>.st0{fill:#eff0f0}</style><path class="st0" d="M113 38.5c.9-1.8.6-4.6-5.5-7.9-4.3-2.4-9.2-3.6-14.6-4.3.3-12-8.1-22.9-20.3-25.3-6.6-1.3-13.4 0-19 3.7-3.3 2.2-5.9 5-7.9 8.3-6.2-.9-12.3.6-14.8 3.7-1.1 1.3-1.4 2.9-.8 4.4 1.1 2.8 5.3 4.9 12.3 6 .2 4.4 1.7 8.8 4.2 12.6 3.7 5.6 9.4 9.4 16.1 10.8 1.7.3 3.3.5 5 .5 8.4 0 16.2-4.3 20.9-11.1 4.3 1.6 9.1 2.4 13.3 2.4 5.4.1 9.8-1.2 11.1-3.8zM42.9 20.8c-.2 1.1-.4 2.2-.4 3.3-7.9-1.4-9.2-3.6-9.4-4.1-.1-.2-.2-.6.3-1.2 1.5-1.8 5.9-3.2 11-2.7-.7 1.4-1.2 3-1.5 4.7zm46.5 9.3c-.5 2.5-1.4 4.9-2.7 7-.1.1-.2.2-.2.3-4.7 7.6-13.9 11.9-23.2 10-5.8-1.2-10.8-4.5-14.1-9.5-2.1-3.2-3.3-6.7-3.6-10.4 9.4 1.1 18.2 1.1 26.8 1.1 6.2 0 12 0 17.2.4-.1.4-.1.8-.2 1.1zm-17-4.5c-8.5 0-17.2.1-26.4-1.1-.1 0-.3 0-.4-.1.1-1 .2-2.1.4-3.1.4-2 1.1-3.9 2-5.7.1-.1.1-.2.2-.4 1.7-3.2 4.2-5.9 7.3-7.9 3.7-2.4 7.9-3.7 12.2-3.7 1.5 0 2.9.1 4.4.4C82.6 6.1 90 15.6 89.8 26c-5.4-.4-11.2-.4-17.4-.4zm37.8 11.6c-1 2.1-11 3.3-20 .1 1-2 1.8-4.2 2.3-6.5.1-.4.2-.9.2-1.3 5 .6 9.5 1.8 13.3 3.9 3.9 2.1 4.4 3.4 4.2 3.8zm2.6 28.8c-5.3 0-9.6 4.3-9.6 9.6s4.3 9.6 9.6 9.6 9.6-4.3 9.6-9.6-4.3-9.6-9.6-9.6zm0 16c-3.5 0-6.4-2.9-6.4-6.4s2.9-6.4 6.4-6.4 6.4 2.9 6.4 6.4-2.9 6.4-6.4 6.4zm-41.6 27.3c-3.5 0-6.4 2.9-6.4 6.4s2.9 6.4 6.4 6.4 6.4-2.9 6.4-6.4-2.9-6.4-6.4-6.4zm0 9.6c-1.8 0-3.2-1.4-3.2-3.2s1.4-3.2 3.2-3.2c1.8 0 3.2 1.4 3.2 3.2s-1.4 3.2-3.2 3.2zm64.9-8.1c-.5-.5-1.3-.6-1.9-.3-2.7 1.5-3.3 1.5-6 0-.6-.3-1.4-.2-1.9.2-.5.5-.6 1.3-.3 1.9 1.5 2.8 1.5 3.3 0 6-.3.6-.2 1.4.2 1.9s1.3.6 1.9.3c2.7-1.5 3.3-1.5 6 0 .2.1.5.2.8.2.4 0 .8-.2 1.1-.5.5-.5.6-1.3.3-1.9-1.5-2.7-1.5-3.3 0-6 .4-.5.3-1.3-.2-1.8zm-35.6 31.7c-.7-.7-1.8-.8-2.6-.4-3.8 2.2-4.6 2.2-8.4 0-.8-.5-1.9-.3-2.6.3-.7.7-.8 1.8-.4 2.6 2.2 3.9 2.2 4.6 0 8.5-.5.9-.3 1.9.3 2.6.7.7 1.8.8 2.6.4 3.8-2.2 4.6-2.2 8.4 0 .3.2.7.3 1.1.3.6 0 1.1-.2 1.5-.6.7-.7.8-1.8.4-2.6-2.2-3.8-2.2-4.6 0-8.5.5-.8.4-1.9-.3-2.6zM2.6 60.9c4.6 1.3 5.2 1.9 6.4 6.5.3 1 1.1 1.6 2.2 1.7 1 0 1.9-.7 2.2-1.6 1.3-4.6 1.9-5.2 6.5-6.4 1-.3 1.6-1.1 1.6-2.2 0-1-.7-1.9-1.6-2.2-4.6-1.3-5.2-1.9-6.4-6.5-.3-1-1.1-1.6-2.2-1.7-1 0-1.9.7-2.2 1.6-1.3 4.6-1.9 5.2-6.5 6.4-1 .3-1.6 1.1-1.6 2.2 0 1 .6 1.9 1.6 2.2zM143.4 34c-3-.9-3.4-1.3-4.3-4.3-.2-.7-.8-1.1-1.5-1.1s-1.3.5-1.5 1.1c-.8 3-1.2 3.4-4.3 4.2-.7.2-1.1.8-1.1 1.5s.5 1.3 1.1 1.5c3 .9 3.4 1.3 4.3 4.3.2.7.8 1.1 1.5 1.1s1.3-.5 1.5-1.1c.8-3 1.2-3.4 4.3-4.2.7-.2 1.1-.8 1.1-1.5s-.5-1.3-1.1-1.5zM25.6 78.8C11.5 78.8 0 90.3 0 104.5s11.5 25.7 25.6 25.7 25.6-11.5 25.6-25.7-11.5-25.7-25.6-25.7zm0 48.1c-12.4 0-22.4-10.1-22.4-22.5s10-22.5 22.4-22.5S48 92.1 48 104.5c0 12.4-10 22.4-22.4 22.4z"/></svg>