<svg width="24" height="24" viewBox="0 0 24 24" xmlns="http://www.w3.org/2000/svg"><title>2</title><defs><linearGradient x1="0%" y1="0%" x2="102%" y2="101%" id="a"><stop stop-color="#3023AE" offset="0%"/><stop stop-color="#C86DD7" offset="100%"/></linearGradient></defs><g transform="translate(0 -1)" fill="none" fill-rule="evenodd"><circle stroke="url(#a)" stroke-width="2" cx="12" cy="13" r="11"/><path d="M8.008 10.602c0-2.18 1.672-3.665 4.11-3.665 2.35 0 3.991 1.352 3.991 3.29 0 1.226-.664 2.28-2.617 4.117l-2.156 2.054v.141h4.937V18.5H8.141v-1.648l3.68-3.602c1.585-1.547 1.984-2.133 1.984-2.867 0-.906-.735-1.547-1.766-1.547-1.094 0-1.844.719-1.844 1.758v.047H8.008v-.04z" fill="#6F42C1"/></g></svg>