<svg width="24" height="24" viewBox="0 0 24 24" xmlns="http://www.w3.org/2000/svg"><title>3</title><defs><linearGradient x1="50%" y1="0%" x2="50%" y2="100%" id="a"><stop stop-color="#FAD961" offset="0%"/><stop stop-color="#F76B1C" offset="100%"/></linearGradient></defs><g transform="translate(0 -1)" fill="none" fill-rule="evenodd"><circle stroke="url(#a)" stroke-width="2" cx="12" cy="13" r="11"/><path d="M10.89 13.61v-1.758h1.376c1.07 0 1.796-.625 1.796-1.547 0-.907-.703-1.485-1.804-1.485-1.094 0-1.82.617-1.883 1.594h-2.18c.078-2.133 1.664-3.476 4.125-3.476 2.313 0 3.977 1.265 3.977 3.039 0 1.304-.82 2.32-2.078 2.578v.14c1.547.172 2.515 1.203 2.515 2.688 0 1.976-1.859 3.406-4.43 3.406-2.515 0-4.218-1.39-4.32-3.516h2.258c.07.954.875 1.555 2.086 1.555 1.18 0 2-.664 2-1.625 0-.984-.773-1.594-2.039-1.594h-1.398z" fill="#F8863A"/></g></svg>