<svg xmlns="http://www.w3.org/2000/svg" viewBox="0 0 16 12"><path fill="none" d="M2 2h4v1H2zm8.5 1C8.6 3 7 4.6 7 6.5S8.6 10 10.5 10 14 8.4 14 6.5 12.4 3 10.5 3zm0 6C9.1 9 8 7.9 8 6.5S9.1 4 10.5 4 13 5.1 13 6.5 11.9 9 10.5 9z"/><path fill="#FFF" d="M10.5 4C9.1 4 8 5.1 8 6.5S9.1 9 10.5 9 13 7.9 13 6.5 11.9 4 10.5 4z"/><path fill="#FFF" d="M15 1H7c0-.5-.5-1-1-1H2c-.5 0-1 .5-1 1-.5 0-1 .5-1 1v9c0 .5.5 1 1 1h14c.5 0 1-.5 1-1V2c0-.5-.5-1-1-1zM6 3H2V2h4v1zm4.5 7C8.6 10 7 8.4 7 6.5S8.6 3 10.5 3 14 4.6 14 6.5 12.4 10 10.5 10z"/></svg>