<svg xmlns="http://www.w3.org/2000/svg" viewBox="0 0 264 88"><title>default-skin 2</title><path fill="#586069" d="M67 59.5v3.8c-6.3.8-9.2 5.8-10 9.7 2.2-2.8 5.6-5.1 10-5.1v3.6l6-5.9-6-6.1zM13 29v-5h2v3h3v2h-5zm0-14h5v2h-3v3h-2v-5zm18 0v5h-2v-3h-3v-2h5zm0 14h-5v-2h3v-3h2v5zm31-5v5h-2v-3h-3v-2h5zm0-4h-5v-2h3v-3h2v5zm8 0v-5h2v3h3v2h-5zm0 4h5v2h-3v3h-2v-5zM20.6 66l-5.7-5.7 1.4-1.4 5.7 5.7 5.7-5.7 1.4 1.4-5.7 5.7 5.7 5.7-1.4 1.4-5.7-5.7-5.7 5.7-1.4-1.4 5.7-5.7zm91.2-1l-1.8-1.5 3-3.5h-10v-2h10l-3-3.5 1.8-1.5 5.2 6-5.2 6zm40.4 0l1.8-1.5-3-3.5h10v-2h-10l3-3.5-1.8-1.5-5.2 6 5.2 6zm8.8-36.5l-3.2-3.2-1.4 1.4 3.2 3.2 1.4-1.4z"/><path fill="none" stroke="#586069" stroke-width="1.5" d="M152.5 27c3 0 5.5-2.5 5.5-5.5s-2.5-5.5-5.5-5.5-5.5 2.5-5.5 5.5 2.5 5.5 5.5 5.5z"/><path fill="#586069" d="M150 21h5v1h-5v-1zm-33 7.5l-1.4 1.4-3.2-3.2 1.4-1.4 3.2 3.2z"/><path fill="none" stroke="#586069" stroke-width="1.5" d="M108.5 27c3 0 5.5-2.5 5.5-5.5s-2.5-5.5-5.5-5.5-5.5 2.5-5.5 5.5 2.5 5.5 5.5 5.5z"/><path fill="#586069" d="M106 21h5v1h-5v-1z"/><path fill="#586069" d="M109 19l-.1 5h-1l.1-5h1z"/></svg>