<svg xmlns="http://www.w3.org/2000/svg" viewBox="0 0 1280 406"><path fill="none" stroke="#E1E4E8" stroke-width="8" stroke-linecap="square" d="M1102 4v380c0 5.5-4.5 10-10 10H227c-5.5 0-10-4.5-10-10v-91c0-5.5-4.5-10-10-10H0"/><circle fill="#E1E4E8" cx="83" cy="283" r="12"/><circle fill="none" stroke="#FFF" stroke-width="7" cx="83" cy="283" r="8.5"/><circle fill="#FFF" cx="289" cy="394" r="12"/><circle fill="none" stroke="#E1E4E8" stroke-width="7" cx="289" cy="394" r="8.5"/><circle fill="#FFF" cx="1102" cy="32" r="12"/><circle fill="none" stroke="#E1E4E8" stroke-width="7" cx="1102" cy="32" r="8.5"/><path fill="none" stroke="#E1E4E8" stroke-width="8" stroke-linecap="square" d="M0 61.5h47.9c2.7 0 5.2 1.1 7.1 2.9l97.1 97.1c1.9 1.9 4.4 2.9 7.1 2.9H1228c5.5 0 10 4.5 10 10V288c0 5.5 4.5 10 10 10h34"/><circle fill="#FFF" cx="22" cy="62" r="12"/><circle fill="none" stroke="#E1E4E8" stroke-width="7" cx="22" cy="62" r="8.5"/><circle fill="#FFF" cx="157" cy="164" r="12"/><circle fill="none" stroke="#E1E4E8" stroke-width="7" cx="157" cy="164" r="8.5"/><circle fill="#FFF" cx="1238" cy="244" r="12"/><circle fill="none" stroke="#E1E4E8" stroke-width="7" cx="1238" cy="244" r="8.5"/><circle fill="#E1E4E8" cx="1178" cy="164" r="12"/><circle fill="none" stroke="#FFF" stroke-width="7" cx="1178" cy="164" r="8.5"/></svg>