<svg width="11" height="14" viewBox="0 0 11 14" xmlns="http://www.w3.org/2000/svg"><title>Shape</title><path d="M5.5 0C2.466 0 0 2.188 0 4.813 0 8.768 5.5 14 5.5 14S11 8.768 11 4.812C11 2.188 8.534 0 5.5 0zm0 12.731C3.795 10.955.917 7.385.917 4.813.917 2.643 2.979.874 5.5.874c1.228 0 2.393.42 3.263 1.19.844.752 1.32 1.724 1.32 2.748 0 2.572-2.878 6.142-4.583 7.918zm1.833-7.918c0 .97-.816 1.75-1.833 1.75-1.018 0-1.833-.78-1.833-1.75 0-.972.816-1.75 1.833-1.75 1.018 0 1.833.778 1.833 1.75z" fill="#586069"/></svg>