<svg xmlns="http://www.w3.org/2000/svg"><defs><linearGradient x1="13.43%" y1="5.496%" x2="85.618%" y2="91.132%" id="1shape-a"><stop stop-color="#1A82F9" offset="0%"/><stop stop-color="#0366D6" offset="100%"/></linearGradient><linearGradient x1="0%" y1="0%" x2="102%" y2="101%" id="2shape-a"><stop stop-color="#3023AE" offset="0%"/><stop stop-color="#C86DD7" offset="100%"/></linearGradient><linearGradient x1="50%" y1="0%" x2="50%" y2="100%" id="3shape-a"><stop stop-color="#FAD961" offset="0%"/><stop stop-color="#F76B1C" offset="100%"/></linearGradient></defs><symbol id="shape-1" viewBox="0 0 24 24"><title>1</title><g transform="translate(0 -1)" fill-rule="evenodd"><circle stroke="url(#1shape-a)" stroke-width="2" cx="12" cy="13" r="11"/><path d="M11.867 18.5V9.523h-.14L8.96 11.43V9.234l2.914-2.007h2.352V18.5z"/></g></symbol><symbol id="shape-2" viewBox="0 0 24 24"><title>2</title><g transform="translate(0 -1)" fill-rule="evenodd"><circle stroke="url(#2shape-a)" stroke-width="2" cx="12" cy="13" r="11"/><path d="M8.008 10.602c0-2.18 1.672-3.665 4.11-3.665 2.35 0 3.991 1.352 3.991 3.29 0 1.226-.664 2.28-2.617 4.117l-2.156 2.054v.141h4.937V18.5H8.141v-1.648l3.68-3.602c1.585-1.547 1.984-2.133 1.984-2.867 0-.906-.735-1.547-1.766-1.547-1.094 0-1.844.719-1.844 1.758v.047H8.008v-.04z"/></g></symbol><symbol id="shape-3" viewBox="0 0 24 24"><title>3</title><g transform="translate(0 -1)" fill-rule="evenodd"><circle stroke="url(#3shape-a)" stroke-width="2" cx="12" cy="13" r="11"/><path d="M10.89 13.61v-1.758h1.376c1.07 0 1.796-.625 1.796-1.547 0-.907-.703-1.485-1.804-1.485-1.094 0-1.82.617-1.883 1.594h-2.18c.078-2.133 1.664-3.476 4.125-3.476 2.313 0 3.977 1.265 3.977 3.039 0 1.304-.82 2.32-2.078 2.578v.14c1.547.172 2.515 1.203 2.515 2.688 0 1.976-1.859 3.406-4.43 3.406-2.515 0-4.218-1.39-4.32-3.516h2.258c.07.954.875 1.555 2.086 1.555 1.18 0 2-.664 2-1.625 0-.984-.773-1.594-2.039-1.594h-1.398z"/></g></symbol><symbol id="shape-arrow-down" viewBox="0 0 8 5"><title>Shape</title><path d="M4 5L0 1.2 1.2 0 4 2.9 6.8 0 8 1.2z"/></symbol><symbol id="shape-arrow-left" viewBox="0 0 6.5 10"><title>Shape</title><path d="M6.5 1.5L5 0 0 5l5 5 1.5-1.5L2.8 5z"/></symbol><symbol id="shape-arrow-right" viewBox="0 0 6.5 10"><title>Shape</title><path d="M0 1.5L1.5 0l5 5-5 5L0 8.5 3.8 5z"/></symbol><symbol id="shape-calendar" viewBox="0 0 13 14"><title>Shape</title><path d="M12 1h-1v1.5c0 .28-.22.5-.5.5h-2c-.28 0-.5-.22-.5-.5V1H5v1.5c0 .28-.22.5-.5.5h-2c-.28 0-.5-.22-.5-.5V1H1c-.55 0-1 .45-1 1v11c0 .55.45 1 1 1h11c.55 0 1-.45 1-1V2c0-.55-.45-1-1-1zm0 12H1V4h11v9zM4 2H3V0h1v2zm6 0H9V0h1v2zM5 6H4V5h1v1zm2 0H6V5h1v1zm2 0H8V5h1v1zm2 0h-1V5h1v1zM3 8H2V7h1v1zm2 0H4V7h1v1zm2 0H6V7h1v1zm2 0H8V7h1v1zm2 0h-1V7h1v1zm-8 2H2V9h1v1zm2 0H4V9h1v1zm2 0H6V9h1v1zm2 0H8V9h1v1zm2 0h-1V9h1v1zm-8 2H2v-1h1v1zm2 0H4v-1h1v1zm2 0H6v-1h1v1zm2 0H8v-1h1v1z" fill-rule="nonzero"/></symbol><symbol id="shape-camera" viewBox="0 0 16 12"><path d="M2 2h4v1H2zM10.5 3C8.6 3 7 4.6 7 6.5S8.6 10 10.5 10 14 8.4 14 6.5 12.4 3 10.5 3zm0 6C9.1 9 8 7.9 8 6.5S9.1 4 10.5 4 13 5.1 13 6.5 11.9 9 10.5 9z"/><path d="M10.5 4C9.1 4 8 5.1 8 6.5S9.1 9 10.5 9 13 7.9 13 6.5 11.9 4 10.5 4z"/><path d="M15 1H7c0-.5-.5-1-1-1H2c-.5 0-1 .5-1 1-.5 0-1 .5-1 1v9c0 .5.5 1 1 1h14c.5 0 1-.5 1-1V2c0-.5-.5-1-1-1zM6 3H2V2h4v1zm4.5 7C8.6 10 7 8.4 7 6.5S8.6 3 10.5 3 14 4.6 14 6.5 12.4 10 10.5 10z"/></symbol><symbol id="shape-check" viewBox="0 0 14 12"><title>check</title><path fill-rule="nonzero" d="M14 2.4L4.667 12 0 7.2l1.75-1.8 2.917 3L12.25.6z"/></symbol><symbol id="shape-close" viewBox="-10.4 -13.7 20.7 20.7"><path d="M10.4-13l-.8-.7L0-4.1l-9.6-9.6-.8.7 9.7 9.6-9.7 9.7.8.7L0-2.7 9.6 7l.8-.7L.7-3.4z"/></symbol><symbol id="shape-default-skin" viewBox="0 0 264 88"><title>default-skin 2</title><path d="M67 59.5v3.8c-6.3.8-9.2 5.8-10 9.7 2.2-2.8 5.6-5.1 10-5.1v3.6l6-5.9-6-6.1zM13 29v-5h2v3h3v2h-5zm0-14h5v2h-3v3h-2v-5zm18 0v5h-2v-3h-3v-2h5zm0 14h-5v-2h3v-3h2v5zM62 24v5h-2v-3h-3v-2h5zm0-4h-5v-2h3v-3h2v5zm8 0v-5h2v3h3v2h-5zm0 4h5v2h-3v3h-2v-5zM20.6 66l-5.7-5.7 1.4-1.4 5.7 5.7 5.7-5.7 1.4 1.4-5.7 5.7 5.7 5.7-1.4 1.4-5.7-5.7-5.7 5.7-1.4-1.4 5.7-5.7zM111.8 65l-1.8-1.5 3-3.5h-10v-2h10l-3-3.5 1.8-1.5 5.2 6-5.2 6zM152.2 65l1.8-1.5-3-3.5h10v-2h-10l3-3.5-1.8-1.5-5.2 6 5.2 6zM161 28.5l-3.2-3.2-1.4 1.4 3.2 3.2 1.4-1.4z"/><path stroke="#586069" stroke-width="1.5" d="M152.5 27c3 0 5.5-2.5 5.5-5.5s-2.5-5.5-5.5-5.5-5.5 2.5-5.5 5.5 2.5 5.5 5.5 5.5z"/><path d="M150 21h5v1h-5v-1zM117 28.5l-1.4 1.4-3.2-3.2 1.4-1.4 3.2 3.2z"/><path stroke="#586069" stroke-width="1.5" d="M108.5 27c3 0 5.5-2.5 5.5-5.5s-2.5-5.5-5.5-5.5-5.5 2.5-5.5 5.5 2.5 5.5 5.5 5.5z"/><path d="M106 21h5v1h-5v-1z"/><path d="M109 19l-.1 5h-1l.1-5h1z"/></symbol><symbol id="shape-line" viewBox="0 0 1280 406"><path stroke="#E1E4E8" stroke-width="8" stroke-linecap="square" d="M1102 4v380c0 5.5-4.5 10-10 10H227c-5.5 0-10-4.5-10-10v-91c0-5.5-4.5-10-10-10H0"/><circle cx="83" cy="283" r="12"/><circle stroke="#FFF" stroke-width="7" cx="83" cy="283" r="8.5"/><circle cx="289" cy="394" r="12"/><circle stroke="#E1E4E8" stroke-width="7" cx="289" cy="394" r="8.5"/><circle cx="1102" cy="32" r="12"/><circle stroke="#E1E4E8" stroke-width="7" cx="1102" cy="32" r="8.5"/><path stroke="#E1E4E8" stroke-width="8" stroke-linecap="square" d="M0 61.5h47.9c2.7 0 5.2 1.1 7.1 2.9l97.1 97.1c1.9 1.9 4.4 2.9 7.1 2.9H1228c5.5 0 10 4.5 10 10V288c0 5.5 4.5 10 10 10h34"/><circle cx="22" cy="62" r="12"/><circle stroke="#E1E4E8" stroke-width="7" cx="22" cy="62" r="8.5"/><circle cx="157" cy="164" r="12"/><circle stroke="#E1E4E8" stroke-width="7" cx="157" cy="164" r="8.5"/><circle cx="1238" cy="244" r="12"/><circle stroke="#E1E4E8" stroke-width="7" cx="1238" cy="244" r="8.5"/><circle cx="1178" cy="164" r="12"/><circle stroke="#FFF" stroke-width="7" cx="1178" cy="164" r="8.5"/></symbol><symbol id="shape-line1" viewBox="0 0 1280 252"><path stroke="#E1E4E8" stroke-width="8" stroke-linecap="square" d="M0 11.5h47.9c2.7 0 5.2 1.1 7.1 2.9l97.1 97.1c1.9 1.9 4.4 2.9 7.1 2.9H1228c5.5 0 10 4.5 10 10V238c0 5.5 4.5 10 10 10h34"/><circle cx="22" cy="12" r="12"/><circle stroke="#E1E4E8" stroke-width="7" cx="22" cy="12" r="8.5"/><circle cx="157" cy="114" r="12"/><circle stroke="#E1E4E8" stroke-width="7" cx="157" cy="114" r="8.5"/><circle cx="1238" cy="194" r="12"/><circle stroke="#E1E4E8" stroke-width="7" cx="1238" cy="194" r="8.5"/><circle cx="1178" cy="114" r="12"/><circle stroke="#FFF" stroke-width="7" cx="1178" cy="114" r="8.5"/></symbol><symbol id="shape-line2" viewBox="0 0 1114 406"><path class="line" stroke="#E1E4E8" stroke-width="8" stroke-linecap="square" d="M1102 4v380c0 5.5-4.5 10-10 10H227c-5.5 0-10-4.5-10-10v-91c0-5.5-4.5-10-10-10H0"/><circle cx="83" cy="283" r="12"/><circle stroke="#FFF" stroke-width="7" cx="83" cy="283" r="8.5"/><circle cx="289" cy="394" r="12"/><circle stroke="#E1E4E8" stroke-width="7" cx="289" cy="394" r="8.5"/><circle cx="1102" cy="32" r="12"/><circle stroke="#E1E4E8" stroke-width="7" cx="1102" cy="32" r="8.5"/></symbol><symbol id="shape-location-pin" viewBox="0 0 11 14"><title>Shape</title><path d="M5.5 0C2.466 0 0 2.188 0 4.813 0 8.768 5.5 14 5.5 14S11 8.768 11 4.812C11 2.188 8.534 0 5.5 0zm0 12.731C3.795 10.955.917 7.385.917 4.813.917 2.643 2.979.874 5.5.874c1.228 0 2.393.42 3.263 1.19.844.752 1.32 1.724 1.32 2.748 0 2.572-2.878 6.142-4.583 7.918zm1.833-7.918c0 .97-.816 1.75-1.833 1.75-1.018 0-1.833-.78-1.833-1.75 0-.972.816-1.75 1.833-1.75 1.018 0 1.833.778 1.833 1.75z" fill-rule="nonzero"/></symbol><symbol id="shape-person" viewBox="0 0 12 14"><title>Shape</title><path d="M12 13.002a.998.998 0 0 1-.998.998H1.001A1 1 0 0 1 0 12.999V12c0-2.633 4-4 4-4s.229-.409 0-1c-.841-.62-.944-1.59-1-4C3.173.587 4.867 0 6 0s2.827.586 3 3c-.056 2.41-.159 3.38-1 4-.229.59 0 1 0 1s4 1.367 4 4v1.002z" fill-rule="nonzero"/></symbol><symbol id="shape-round-graph" viewBox="0 0 106 106"><circle opacity=".1" stroke="#1B62AA" stroke-miterlimit="10" cx="53" cy="53" r="49"/><circle stroke="#086CDE" stroke-width="8" stroke-linecap="round" stroke-linejoin="round" stroke-miterlimit="10" cx="53" cy="53" r="49"/></symbol></svg>