<svg xmlns="http://www.w3.org/2000/svg" viewBox="0 0 773 716.5"><title>shape</title><path fill="#343232" d="M757.6 290.6c5.6-44.5 2.9-51.5-18.4-92.3-37.1-71.2-20.8-84.9-107.6-134.2-86.7-49.2-156.8-36.3-242.2-46.5-89.6-10.8-87.6 87.7-193.2 69.7-65.6-11.2-70.3-21.3-118.1 21.8-48.7 43.9-62.2 68.9-52 132 13.3 82.4-29.5 66.2-23.6 144.4 1.8 23.3 3.6 32.6 18.6 95.6 5.4 22.5 10.2 37.5 3.6 59.6-17.7 59.3 46 68.9 75.9 93.4 38.4 31.4 44.7 82.4 127.4 74.4 91.8-9 49-27.4 102-39.4 34.1-7.7 24.4 23 88.6 14.6 68.8-9 71.7 11.5 132 10.5 49-.8 88.9 13.4 133.5-10.5 30.9-16.6 22.6-23.9 51.1-56 27.7-31.2 35-47.3 35-90 0-59.3-56-81.6-56-142.3 0-53.4 36.5-50.8 43.4-104.8z"/></svg>