<svg xmlns="http://www.w3.org/2000/svg" viewBox="0 0 773 716.5"><path fill="#FFF" d="M55.2 129.3c47.8-43.1 72.6-16 141-42 100.1-38 106.4-96.8 196-86 85.4 10.2 67.3 78.8 154 128 86.8 49.3 118.4 15.4 193 69 37.4 26.9 36.6 47.5 31 92-6.9 54-56 51.7-56 105 0 60.7 56 63.7 56 123 0 42.7-17.8 64.2-56 81-32.3 14.2-54.1-35.6-85-19-44.6 23.9-17.4 83.2-66 100-56.9 19.7-76.2-36-145-27-64.2 8.5-57.4 55.3-121 62-65.4 6.8-68.9-16.2-137-35-64.4-17.7-99.5 4.1-128-38-16.7-24.6-19.2-58.5-7.5-101.6 6.1-22.3 19.7-41.8 38.5-55.2 29.3-20.9 42.3-42.6 39-65.2-11.4-77.6-85.7-76.6-99-159-10.2-63.1 3.3-88.1 52-132z"/><title>shape</title><path fill="#343232" d="M757.6 290.6c5.6-44.5 2.9-51.5-18.4-92.3-37.1-71.2-20.8-84.9-107.6-134.2-86.7-49.2-156.8-36.3-242.2-46.5-89.6-10.8-87.6 87.7-193.2 69.7-65.6-11.2-70.3-21.3-118.1 21.8-48.7 43.9-62.2 68.9-52 132 13.3 82.4-29.9 66.4-18.5 144 3.3 22.6-1.5 33 13.5 96 5.4 22.5 9.7 37.3 3.6 59.6-11.7 43.1-9.2 77 7.5 101.6 28.5 42.1 63.6 20.3 128 38 68.1 18.8 71.6 41.8 137 35 63.6-6.7 57.2-23.3 121.4-31.7 68.8-9 87.7 16.4 144.6-3.3 48.6-16.8 22.3-23.8 66.9-47.7 30.9-16.6 51.8.2 84.1-14 38.2-16.8 56-38.3 56-81 0-59.3-56-81.6-56-142.3 0-53.3 36.5-50.7 43.4-104.7z"/></svg>